<svg width="25" height="25" viewBox="0 0 25 25" fill="none" xmlns="http://www.w3.org/2000/svg">
<rect width="25" height="25" fill="white"/>
<g clip-path="url(#clip0_67_571)">
<path d="M19.9806 18.2352H6.01709L7.76254 13.8716H18.2352L19.9806 18.2352Z" fill="#FE6C24"/>
<path d="M18.2353 13.8716H7.7627V7.32624C7.7627 7.21049 7.80865 7.09954 7.8905 7.01769C7.97235 6.93584 8.08335 6.88989 8.19905 6.88989H17.799C17.9147 6.88989 18.0257 6.93584 18.1075 7.01769C18.1894 7.09954 18.2353 7.21049 18.2353 7.32624V13.8716Z" fill="#FE6C24"/>
<path d="M19.9806 18.2351H6.01709C6.01709 18.4666 6.10904 18.6886 6.27269 18.8522C6.43634 19.0159 6.65834 19.1079 6.88979 19.1079H19.1079C19.3394 19.1079 19.5613 19.0159 19.725 18.8522C19.8887 18.6886 19.9806 18.4666 19.9806 18.2351Z" fill="#FE6C24"/>
<path d="M11.4716 16.7077L11.2534 17.5805H14.7443L14.5261 16.7077H11.4716Z" fill="#FFC289"/>
<path d="M17.3625 7.76245H8.63525V12.9988H17.3625V7.76245Z" fill="#FFC289"/>
<path d="M16.85 15.8349H9.14821L8.97366 16.2713H17.0245L16.85 15.8349Z" fill="#FFC289"/>
<path d="M16.6755 15.3985L16.5009 14.9621H9.4973L9.32275 15.3985H16.6755Z" fill="#FFC289"/>
<rect x="9" y="14" width="8" height="2.5" fill="#FE6C24"/>
</g>
<defs>
<clipPath id="clip0_67_571">
<rect width="24" height="24" fill="white" transform="translate(1 1)"/>
</clipPath>
</defs>
</svg>
