<svg width="25" height="25" viewBox="0 0 25 25" fill="none" xmlns="http://www.w3.org/2000/svg">
<rect width="25" height="25" fill="white"/>
<g clip-path="url(#clip0_67_464)">
<path fill-rule="evenodd" clip-rule="evenodd" d="M21 9.00001C21 8.67633 20.9214 8.35751 20.7709 8.0709C20.6205 7.7843 20.4028 7.53848 20.1365 7.35456C19.8701 7.17063 19.5631 7.0541 19.2418 7.01496C18.9205 6.97583 18.5945 7.01526 18.2918 7.12987C17.9891 7.24448 17.7187 7.43084 17.5039 7.67296C17.2891 7.91508 17.1363 8.20572 17.0585 8.51992C16.9808 8.83412 16.9805 9.16249 17.0576 9.47685C17.1347 9.7912 17.287 10.0821 17.5013 10.3247L15.5947 13.7567C15.0959 13.6011 14.556 13.6471 14.0907 13.8847L12.2527 12.2307C12.3437 11.9199 12.3579 11.5916 12.2941 11.2741C12.2302 10.9566 12.0902 10.6593 11.8861 10.4078C11.682 10.1564 11.4198 9.95827 11.1222 9.83053C10.8246 9.70278 10.5004 9.64922 10.1775 9.67445C9.85463 9.69968 9.5427 9.80295 9.26854 9.97539C8.99438 10.1478 8.7662 10.3842 8.60361 10.6644C8.44102 10.9445 8.34889 11.2599 8.33514 11.5835C8.32139 11.907 8.38643 12.2291 8.52466 12.522L5.86466 15.1533C5.74232 15.2784 5.67401 15.4464 5.67446 15.6213C5.6749 15.7963 5.74408 15.964 5.86706 16.0884C5.99004 16.2128 6.15697 16.2838 6.33187 16.2862C6.50677 16.2887 6.67561 16.2223 6.802 16.1013L9.464 13.468C9.72666 13.5953 10.022 13.6667 10.3333 13.6667C10.7533 13.6667 11.1433 13.5373 11.4653 13.316L13.1727 14.8527C13.0315 15.1698 12.9752 15.5183 13.0095 15.8638C13.0439 16.2093 13.1675 16.5399 13.3684 16.8231C13.5692 17.1063 13.8403 17.3323 14.155 17.479C14.4697 17.6256 14.8171 17.6878 15.1631 17.6595C15.5092 17.6311 15.8419 17.5131 16.1285 17.3172C16.4151 17.1213 16.6457 16.8541 16.7978 16.542C16.9498 16.2299 17.018 15.8835 16.9956 15.5371C16.9732 15.1906 16.861 14.856 16.67 14.566L18.6667 10.9733C18.9536 11.0218 19.2476 11.0071 19.5282 10.9303C19.8088 10.8535 20.0693 10.7163 20.2915 10.5284C20.5137 10.3405 20.6922 10.1064 20.8145 9.84245C20.9369 9.57847 21.0002 9.29097 21 9.00001Z" fill="#FE6C24"/>
<path fill-rule="evenodd" clip-rule="evenodd" d="M7 5.66667V19H20.3333V20.3333H5.66666V5.66667H7Z" fill="#FFC289"/>
</g>
<defs>
<clipPath id="clip0_67_464">
<rect width="16" height="16" fill="white" transform="translate(5 5)"/>
</clipPath>
</defs>
</svg>
