<svg width="25" height="25" viewBox="0 0 25 25" fill="none" xmlns="http://www.w3.org/2000/svg">
<rect width="25" height="25" fill="white"/>
<path d="M12 5.3125C7.6455 5.3125 4.11525 6.54775 4.11525 8.0725V17.9275C4.11525 19.4522 7.6455 20.6875 12 20.6875C16.3545 20.6875 19.8848 19.4522 19.8848 17.9275V8.0725C19.8848 6.54775 16.3545 5.3125 12 5.3125Z" fill="#FFC289"/>
<path d="M19.8848 8.0725C19.8848 9.5965 16.3545 10.8318 12 10.8318C7.6455 10.8318 4.11525 9.5965 4.11525 8.07175C4.11525 6.54775 7.6455 5.3125 12 5.3125C16.3545 5.3125 19.8848 6.54775 19.8848 8.0725Z" fill="#FE6C24"/>
<path fill-rule="evenodd" clip-rule="evenodd" d="M19.8848 12.9467C19.8173 13.03 19.7318 13.1177 19.6245 13.2092C19.2563 13.5265 18.6893 13.8377 17.9408 14.11C16.4475 14.653 14.3475 15.0002 12.0008 15.0002C9.65325 15.0002 7.55325 14.653 6.05925 14.11C5.31075 13.8377 4.74375 13.5265 4.3755 13.21C4.28102 13.1302 4.19392 13.0421 4.11525 12.9467V14.4152C4.5555 14.7025 5.085 14.953 5.67525 15.1675C7.32075 15.766 9.55725 16.1252 12 16.1252C14.4428 16.1252 16.68 15.7652 18.3248 15.1675C18.915 14.953 19.4445 14.7025 19.8848 14.4152V12.9475V12.9467Z" fill="#FE6C24"/>
</svg>
