<svg width="25" height="25" viewBox="0 0 25 25" fill="none" xmlns="http://www.w3.org/2000/svg">
<rect width="25" height="25" fill="white"/>
<path d="M10.539 10.3648L12.2441 8.82395C13.0375 8.107 14.1058 7.77485 15.1658 7.91556L17.4214 8.21497L20.5521 6.52275C20.7544 6.41342 21 6.55989 21 6.78981V12.5433C21 12.9351 20.8109 13.3028 20.4924 13.5308L18.3841 15.0394L13.8169 11.2073L12.3057 12.4303C11.7121 12.9107 10.8393 12.8081 10.3733 12.203C9.94045 11.6409 10.0126 10.8404 10.539 10.3648Z" fill="#FE6C24"/>
<path fill-rule="evenodd" clip-rule="evenodd" d="M10.539 10.3648L12.1753 8.88608C11.3346 8.17199 10.2195 7.86714 9.13105 8.0556L6.90216 8.44151L4.45714 7.12565C4.25051 7.01445 4 7.16411 4 7.39877L4.00002 12.5428C4.00003 12.9531 4.20285 13.3368 4.54185 13.5679L11.1657 18.0833C12.0232 18.6678 13.1539 18.6569 14 18.0561L18.5714 14.9286L18.5575 14.9153L18.3841 15.0394L16.1023 13.1249C16.5607 12.9624 16.9522 12.6943 17.2752 12.3593C17.5661 12.0576 17.5574 11.5771 17.2556 11.2862C16.954 10.9953 16.4735 11.004 16.1826 11.3057C15.9567 11.5399 15.6957 11.6904 15.3903 11.7502C15.1242 11.8023 14.7853 11.793 14.3593 11.6624L13.8169 11.2073L12.3057 12.4303C11.7121 12.9107 10.8393 12.8081 10.3733 12.203C9.94044 11.6409 10.0126 10.8404 10.539 10.3648Z" fill="#FFC289"/>
</svg>
