<svg width="25" height="25" viewBox="0 0 25 25" fill="none" xmlns="http://www.w3.org/2000/svg">
<rect width="25" height="25" fill="white"/>
<g clip-path="url(#clip0_67_470)">
<path d="M12.5 20.1888C12.2428 20.1885 11.9916 20.1108 11.7792 19.9658C8.63197 17.8293 7.26917 16.3645 6.51752 15.4486C4.9157 13.4963 4.14882 11.492 4.17046 9.32154C4.19568 6.83429 6.19116 4.81119 8.61876 4.81119C10.384 4.81119 11.6066 5.80551 12.3186 6.63366C12.3412 6.65965 12.369 6.68048 12.4003 6.69475C12.4316 6.70899 12.4656 6.71639 12.5 6.71639C12.5344 6.71639 12.5684 6.70899 12.5997 6.69475C12.631 6.68048 12.6589 6.65965 12.6814 6.63366C13.3934 5.80473 14.616 4.81119 16.3812 4.81119C18.8088 4.81119 20.8044 6.83429 20.8295 9.32196C20.8512 11.4929 20.0835 13.4972 18.4825 15.449C17.7308 16.3649 16.368 17.8298 13.2208 19.9662C13.0083 20.1111 12.7572 20.1887 12.5 20.1888Z" fill="#FE6C24"/>
</g>
<defs>
<clipPath id="clip0_67_470">
<rect width="17" height="17" fill="white" transform="translate(4 4)"/>
</clipPath>
</defs>
</svg>
