<svg width="25" height="25" viewBox="0 0 25 25" fill="none" xmlns="http://www.w3.org/2000/svg">
<rect width="25" height="25" fill="white"/>
<path fill-rule="evenodd" clip-rule="evenodd" d="M6.19565 6C5.74594 6 5.31464 6.17865 4.99665 6.49665C4.67865 6.81464 4.5 7.24594 4.5 7.69565V17.3043C4.5 17.7541 4.67865 18.1854 4.99665 18.5034C5.31464 18.8214 5.74594 19 6.19565 19H18.6304C19.0801 19 19.5114 18.8214 19.8294 18.5034C20.1474 18.1854 20.3261 17.7541 20.3261 17.3043V7.69565C20.3261 7.24594 20.1474 6.81464 19.8294 6.49665C19.5114 6.17865 19.0801 6 18.6304 6H6.19565Z" fill="#FE6C24"/>
<path fill-rule="evenodd" clip-rule="evenodd" d="M20.3261 8.08226L12.846 13.0697C12.7154 13.1483 12.5654 13.1887 12.413 13.1862C12.2607 13.1887 12.1107 13.1483 11.9801 13.0697L4.5 8.08226V9.78017L11.2001 14.2477L11.2057 14.2522C11.5618 14.4839 11.9891 14.5992 12.413 14.5992C12.837 14.5992 13.2643 14.4839 13.6203 14.2522L20.3261 9.78017V8.08226Z" fill="#FFC289"/>
</svg>
