<svg width="25" height="25" viewBox="0 0 25 25" fill="none" xmlns="http://www.w3.org/2000/svg">
<rect width="25" height="25" fill="white"/>
<path d="M18.2068 5H7.01467L9.58676 8.85707L5.5 13.6258V16.7333C5.5 17.8649 5.94952 18.9502 6.74968 19.7503C7.54983 20.5505 8.63508 21 9.76667 21H15.4556C16.5871 21 17.6724 20.5505 18.4725 19.7503C19.2727 18.9502 19.7222 17.8649 19.7222 16.7333V13.6258L15.6348 8.85707L18.2076 5H18.2068Z" fill="#FE6C24"/>
<path fill-rule="evenodd" clip-rule="evenodd" d="M16.1667 9.44444H9.05555V8.37778H16.1667V9.44444Z" fill="#FFC289"/>
<path fill-rule="evenodd" clip-rule="evenodd" d="M12.0778 12.6444H11.7222C11.3922 12.6444 11.0756 12.7756 10.8423 13.0089C10.6089 13.2423 10.4778 13.5588 10.4778 13.8889V14.2075C10.4778 14.7906 10.8831 15.2955 11.452 15.422L13.5384 15.8857C13.5778 15.8946 13.613 15.9166 13.6382 15.9481C13.6634 15.9797 13.6771 16.0188 13.6771 16.0592V16.7333C13.6771 16.7805 13.6583 16.8257 13.625 16.859C13.5917 16.8924 13.5464 16.9111 13.4993 16.9111H11.7215C11.6744 16.9111 11.6291 16.8924 11.5958 16.859C11.5625 16.8257 11.5437 16.7805 11.5437 16.7333V16.3778H10.4778V16.7333C10.4778 17.4203 11.0353 17.9778 11.7222 17.9778H12.0778V18.8667H13.1444V17.9778H13.5C13.83 17.9778 14.1466 17.8467 14.38 17.6133C14.6133 17.3799 14.7444 17.0634 14.7444 16.7333V16.0592C14.7444 15.4761 14.3391 14.9712 13.7702 14.8446L11.6838 14.381C11.6443 14.3722 11.609 14.3503 11.5836 14.3187C11.5583 14.2872 11.5445 14.2479 11.5444 14.2075V13.8889C11.5444 13.8417 11.5632 13.7965 11.5965 13.7632C11.6299 13.7298 11.6751 13.7111 11.7222 13.7111H13.5C13.5472 13.7111 13.5924 13.7298 13.6257 13.7632C13.659 13.7965 13.6778 13.8417 13.6778 13.8889V14.2444H14.7444V13.8889C14.7444 13.5588 14.6133 13.2423 14.38 13.0089C14.1466 12.7756 13.83 12.6444 13.5 12.6444H13.1444V11.7556H12.0778V12.6444Z" fill="#FFC289"/>
</svg>
