<svg width="25" height="25" viewBox="0 0 25 25" fill="none" xmlns="http://www.w3.org/2000/svg">
<rect width="25" height="25" fill="white"/>
<g clip-path="url(#clip0_67_553)">
<path d="M19.5259 9.54875C19.3516 15.0916 14.8038 19.5312 9.21875 19.5312C7.08344 19.5312 5.46875 17.8641 5.46875 15.7597C5.46877 15.4786 5.553 15.204 5.71058 14.9713C5.86816 14.7386 6.09186 14.5584 6.35281 14.4541L8.27938 13.6834C8.59168 13.5585 8.93379 13.5279 9.2633 13.5955C9.59282 13.6631 9.89525 13.8259 10.1331 14.0638L11.0944 15.0253C11.1369 15.0678 11.1847 15.0728 11.2138 15.0641C12.1217 14.7868 12.9477 14.2907 13.619 13.6193C14.2904 12.948 14.7865 12.1221 15.0637 11.2141C15.0728 11.1847 15.0678 11.1369 15.0253 11.0944L14.0638 10.1331C13.8259 9.89525 13.6631 9.59282 13.5955 9.2633C13.5279 8.93379 13.5585 8.59168 13.6834 8.27938L14.4541 6.35281C14.5584 6.09186 14.7386 5.86816 14.9713 5.71058C15.204 5.553 15.4786 5.46877 15.7597 5.46875C18.0612 5.46875 19.5616 7.30031 19.5259 9.54875Z" fill="#FE6C24"/>
</g>
<defs>
<clipPath id="clip0_67_553">
<rect width="15" height="15" fill="white" transform="translate(5 5)"/>
</clipPath>
</defs>
</svg>
