<svg width="25" height="25" viewBox="0 0 25 25" fill="none" xmlns="http://www.w3.org/2000/svg">
<rect width="25" height="25" fill="white"/>
<g clip-path="url(#clip0_67_472)">
<path fill-rule="evenodd" clip-rule="evenodd" d="M10.3559 9.84282C10.351 9.83795 10.3462 9.83299 10.3415 9.82788C9.74778 9.18211 8.10869 9.03285 7.23653 9.25203C6.35943 9.47249 5.50741 10.0399 4.73566 11.0645C4.29961 11.6435 4.4134 12.4134 4.86728 12.895L5.03024 13.0679C5.62317 13.697 6.51244 13.576 7.06907 13.4C7.26195 13.339 7.77288 13.4295 8.05576 13.5332C8.08554 13.5291 8.11352 13.5256 8.14001 13.5223C8.14527 13.5068 8.15135 13.4913 8.15814 13.4762C8.58344 12.535 9.33467 11.1284 10.3559 9.84282ZM11.1749 16.7424C11.1702 16.7686 11.1649 16.7964 11.1591 16.8258C11.2459 17.1143 11.3061 17.6297 11.2338 17.8186C11.0252 18.3638 10.8518 19.2444 11.4448 19.8735L11.6078 20.0464C12.0616 20.5279 12.8235 20.6871 13.4272 20.286C14.4957 19.5762 15.1125 18.7592 15.3844 17.8966C15.6547 17.0389 15.6026 15.3939 14.9931 14.763C14.9883 14.7581 14.9837 14.7531 14.9791 14.7479C13.6355 15.6914 12.1869 16.3581 11.2221 16.727C11.2066 16.733 11.1908 16.7381 11.1749 16.7424Z" fill="#FE6C24"/>
<path fill-rule="evenodd" clip-rule="evenodd" d="M17.7789 7.23099C17.8905 7.2846 17.9783 7.37768 18.0252 7.49223C18.539 8.74714 18.5265 9.91886 18.1617 10.9753C17.8012 12.0192 17.1069 12.9235 16.297 13.6841C14.6825 15.2006 12.5168 16.232 11.2222 16.727C11.033 16.7993 10.8188 16.7503 10.6798 16.6029L8.25004 14.025C8.11107 13.8775 8.07484 13.6608 8.15822 13.4762C8.7289 12.2131 9.8865 10.1121 11.4957 8.5901C12.3029 7.82667 13.2466 7.18691 14.31 6.88876C15.3862 6.58705 16.5566 6.64385 17.7789 7.23099Z" fill="#FFC289"/>
<path fill-rule="evenodd" clip-rule="evenodd" d="M13.2196 7.32763C12.8462 7.52425 12.4912 7.7595 12.1556 8.02118L16.9038 13.0589C17.1849 12.7393 17.4407 12.3989 17.659 12.0377L13.2196 7.32763ZM12.7544 13.244C13.0558 12.9599 13.0699 12.4852 12.7858 12.1838C12.5017 11.8824 12.027 11.8683 11.7256 12.1524L8.08704 15.5819C7.78562 15.866 7.77156 16.3407 8.05567 16.6421C8.33978 16.9435 8.81445 16.9576 9.11587 16.6735L12.7544 13.244Z" fill="#FE6C24"/>
</g>
<defs>
<clipPath id="clip0_67_472">
<rect width="14" height="14" fill="white" transform="translate(13.2927 2.10483) rotate(46.6944)"/>
</clipPath>
</defs>
</svg>
