<svg width="25" height="25" viewBox="0 0 25 25" fill="none" xmlns="http://www.w3.org/2000/svg">
<rect width="25" height="25" fill="white"/>
<g clip-path="url(#clip0_67_468)">
<path d="M12.9986 23.9988C19.0738 23.9988 23.9985 19.074 23.9985 12.9988C23.9985 6.92365 19.0738 1.99889 12.9986 1.99889C6.92342 1.99889 1.99866 6.92365 1.99866 12.9988C1.99866 19.074 6.92342 23.9988 12.9986 23.9988Z" fill="white"/>
<path d="M18.6089 11.3466L12.2824 17.6678C12.2824 17.6678 8.149 18.9852 8.13098 18.9906C8.06343 18.7184 7.92281 18.4698 7.7244 18.2716C7.52617 18.0732 7.27757 17.9326 7.00541 17.8649C7.01082 17.847 8.32541 13.711 8.32541 13.711L14.6492 7.38721L18.6089 11.3466Z" fill="#FFC289"/>
<path d="M18.883 11.0723L18.6002 11.3551L14.6404 7.39531L14.9232 7.11248C15.0718 6.96388 15.2482 6.846 15.4423 6.76556C15.6364 6.68517 15.8445 6.64374 16.0546 6.64374C16.2648 6.64374 16.4728 6.68517 16.6669 6.76556C16.8611 6.846 17.0375 6.96388 17.186 7.11248L18.883 8.8095C19.0317 8.958 19.1496 9.13441 19.23 9.32852C19.3105 9.52267 19.3519 9.73075 19.3519 9.9409C19.3519 10.151 19.3105 10.3591 19.23 10.5532C19.1496 10.7474 19.0317 10.9237 18.883 11.0723Z" fill="#FE6C24"/>
<path d="M8.13122 18.9907L6.72643 19.3935C6.70928 19.3984 6.69113 19.3986 6.6739 19.3941C6.65662 19.3896 6.6409 19.3806 6.6283 19.368C6.61569 19.3554 6.60666 19.3397 6.60222 19.3224C6.59773 19.3051 6.59795 19.287 6.60286 19.2699L7.00564 17.8651C7.27588 17.9367 7.52228 18.0787 7.71963 18.2767C7.91763 18.474 8.05972 18.7204 8.13122 18.9907Z" fill="#FE6C24"/>
<path d="M14.6407 7.39526L13.8008 8.23525L17.7603 12.1953L18.6003 11.3552L14.6407 7.39526Z" fill="#FFC289"/>
<path d="M17.752 12.2039L12.32 17.6359C12.3092 17.6469 12.2962 17.6557 12.2818 17.6617C12.2675 17.6677 12.2521 17.6708 12.2366 17.6708C12.2211 17.6708 12.2058 17.6677 12.1914 17.6617C12.1771 17.6557 12.1641 17.6469 12.1532 17.6359C12.1318 17.6142 12.1172 17.5866 12.1115 17.5567C12.1057 17.5268 12.1089 17.4958 12.1206 17.4677C12.1842 17.3212 12.2023 17.159 12.1725 17.0022C12.1427 16.8453 12.0665 16.701 11.9536 16.5881C11.8422 16.4767 11.7002 16.4008 11.5456 16.3701C11.391 16.3394 11.2308 16.3552 11.0852 16.4155C11.0532 16.4288 11.0179 16.4324 10.9839 16.4255C10.9499 16.4188 10.9187 16.4019 10.8942 16.3773L10.8914 16.3744C10.8668 16.3501 10.85 16.3188 10.8431 16.2848C10.8363 16.2508 10.8399 16.2155 10.8533 16.1835C10.9135 16.0378 10.9293 15.8777 10.8986 15.7231C10.8679 15.5686 10.792 15.4266 10.6806 15.315C10.5691 15.2037 10.4272 15.1279 10.2726 15.0971C10.118 15.0664 9.95786 15.0822 9.81224 15.1425C9.78021 15.1559 9.74491 15.1594 9.7109 15.1526C9.67685 15.1458 9.64564 15.129 9.62126 15.1043C9.56323 15.0463 9.55425 14.9681 9.58023 14.9107C9.64051 14.765 9.65632 14.6049 9.62556 14.4503C9.59486 14.2958 9.519 14.1538 9.40763 14.0423C9.29469 13.9295 9.15041 13.8532 8.99352 13.8234C8.83668 13.7937 8.67452 13.8117 8.52804 13.8753C8.49994 13.8871 8.46896 13.8903 8.43898 13.8845C8.40906 13.8787 8.38151 13.8641 8.35983 13.8427C8.34878 13.8318 8.33998 13.8188 8.33398 13.8045C8.32798 13.7902 8.32491 13.7748 8.32491 13.7593C8.32491 13.7437 8.32798 13.7284 8.33398 13.714C8.33998 13.6997 8.34878 13.6868 8.35983 13.6759L13.7918 8.24388L17.752 12.2039Z" fill="#FE6C24"/>
<path d="M16.4791 10.9308L10.9845 16.4252C10.9501 16.4187 10.9184 16.4019 10.8939 16.377C10.8682 16.3527 10.8505 16.3212 10.8432 16.2866C10.8359 16.252 10.8393 16.216 10.8529 16.1834C10.9132 16.0378 10.929 15.8776 10.8982 15.723C10.8675 15.5684 10.7917 15.4265 10.6803 15.315C10.5688 15.2036 10.4268 15.1278 10.2723 15.0971C10.1177 15.0663 9.9575 15.0821 9.81193 15.1424C9.7793 15.1561 9.74327 15.1595 9.70867 15.1522C9.67406 15.1449 9.64253 15.1272 9.61833 15.1014C9.59344 15.0767 9.57667 15.0452 9.57011 15.0108L15.0645 9.51662L16.4791 10.9308Z" fill="#FE6C24"/>
</g>
<defs>
<clipPath id="clip0_67_468">
<rect width="22" height="22" fill="white" transform="translate(2 2)"/>
</clipPath>
</defs>
</svg>
