<svg width="25" height="25" viewBox="0 0 25 25" fill="none" xmlns="http://www.w3.org/2000/svg">
<rect width="25" height="25" fill="white"/>
<g clip-path="url(#clip0_67_528)">
<path fill-rule="evenodd" clip-rule="evenodd" d="M12.5 4C14.7543 4 16.9163 4.89553 18.5104 6.48959C20.1045 8.08365 21 10.2457 21 12.5C21 14.7543 20.1045 16.9163 18.5104 18.5104C16.9163 20.1045 14.7543 21 12.5 21C10.2457 21 8.08365 20.1045 6.48959 18.5104C4.89553 16.9163 4 14.7543 4 12.5C4 10.2457 4.89553 8.08365 6.48959 6.48959C8.08365 4.89553 10.2457 4 12.5 4Z" fill="#FFC289"/>
<path fill-rule="evenodd" clip-rule="evenodd" d="M14.625 20.7329C13.9306 20.9105 13.2167 21.0002 12.5 21C11.0528 21.0006 9.62952 20.6315 8.36506 19.9277C7.10061 19.2238 6.03695 18.2086 5.27499 16.9783C6.29621 15.5503 7.72299 14.5497 9.54928 14.5497C12.6919 14.5497 14.3457 17.1374 14.5837 19.9788C14.6044 20.2216 14.6201 20.4791 14.6262 20.7316L14.625 20.7329ZM19.8756 16.7281C18.9572 18.3259 17.5463 19.5834 15.8539 20.3127C15.8903 20.1609 15.9024 20.0031 15.8879 19.8416C15.7579 18.28 15.2321 16.6905 14.2061 15.4604C14.1508 15.3945 14.0941 15.3297 14.0361 15.2661C14.8547 14.852 15.7796 14.6953 16.689 14.8167C17.5984 14.938 18.4498 15.3318 19.1312 15.9461L19.8756 16.7281ZM12.4684 10.664C12.4684 9.941 12.1812 9.24761 11.67 8.73638C11.1587 8.22514 10.4654 7.93793 9.74235 7.93793C9.01935 7.93793 8.32597 8.22514 7.81473 8.73638C7.30349 9.24761 7.01628 9.941 7.01628 10.664C7.01628 11.387 7.30349 12.0804 7.81473 12.5916C8.32597 13.1029 9.01935 13.3901 9.74235 13.3901C10.4654 13.3901 11.1587 13.1029 11.67 12.5916C12.1812 12.0804 12.4684 11.387 12.4684 10.664ZM16.0676 9.19714C16.3642 9.19714 16.6579 9.25556 16.9319 9.36907C17.2059 9.48257 17.4549 9.64893 17.6646 9.85866C17.8743 10.0684 18.0407 10.3174 18.1542 10.5914C18.2677 10.8654 18.3261 11.1591 18.3261 11.4557C18.3261 11.7523 18.2677 12.046 18.1542 12.32C18.0407 12.5941 17.8743 12.843 17.6646 13.0528C17.4549 13.2625 17.2059 13.4289 16.9319 13.5424C16.6579 13.6559 16.3642 13.7143 16.0676 13.7143C15.4686 13.7143 14.8941 13.4763 14.4705 13.0528C14.047 12.6292 13.809 12.0547 13.809 11.4557C13.809 10.8567 14.047 10.2822 14.4705 9.85866C14.8941 9.4351 15.4686 9.19714 16.0676 9.19714Z" fill="#FE6C24"/>
</g>
<defs>
<clipPath id="clip0_67_528">
<rect width="17" height="17" fill="white" transform="translate(4 4)"/>
</clipPath>
</defs>
</svg>
