<svg width="25" height="25" viewBox="0 0 25 25" fill="none" xmlns="http://www.w3.org/2000/svg">
<rect width="25" height="25" fill="white"/>
<g clip-path="url(#clip0_67_474)">
<path d="M15.0788 20.2297V18.7509C15.1428 18.2251 15.6114 17.8731 16.1406 17.8731H16.7749C17.2295 17.8731 17.6655 17.6925 17.987 17.371C18.3085 17.0495 18.4891 16.6135 18.4891 16.1589V14.472C19.16 14.4983 19.5028 14.4423 19.9051 14.1897C20.2846 13.9497 20.4126 13.464 20.2823 13.0331C19.1028 9.128 17.2628 5.19885 12.0091 5.19885C7.98628 5.19885 5.66856 7.26285 5.66856 11.3863C5.66856 14.2297 6.41714 15.1669 7.31885 16.6297C7.79085 17.3966 7.99199 18.2914 7.98971 19.1931L7.98742 20.2297C7.98742 20.3813 8.04762 20.5266 8.15479 20.6338C8.26195 20.7409 8.4073 20.8011 8.55885 20.8011H14.5074C14.659 20.8011 14.8043 20.7409 14.9115 20.6338C15.0186 20.5266 15.0788 20.3813 15.0788 20.2297Z" fill="#FFC289"/>
<path fill-rule="evenodd" clip-rule="evenodd" d="M12.1611 8.0137H12.6251C12.7989 8.01406 12.9686 8.06668 13.112 8.16471C13.2555 8.26274 13.3662 8.40166 13.4297 8.56342L13.6423 9.10399L14.288 9.47656L14.8606 9.3897C15.0328 9.36356 15.2088 9.38992 15.3658 9.46535C15.5228 9.54079 15.6534 9.66178 15.7406 9.81256L15.9726 10.2137C16.0598 10.3645 16.0995 10.5381 16.0865 10.7119C16.0734 10.8856 16.0082 11.0514 15.8994 11.1874L15.5383 11.64V12.3874L15.8971 12.84C16.0054 12.9761 16.0703 13.1416 16.0833 13.315C16.0964 13.4885 16.057 13.6618 15.9703 13.8126L15.7383 14.2126C15.6513 14.3636 15.5208 14.485 15.3639 14.5609C15.2069 14.6367 15.0307 14.6635 14.8583 14.6377L14.2869 14.5508L13.64 14.9234L13.4286 15.4628C13.3652 15.6248 13.2546 15.764 13.1111 15.8622C12.9676 15.9605 12.7979 16.0133 12.624 16.0137H12.16C11.9859 16.0135 11.8159 15.9608 11.6722 15.8625C11.5285 15.7643 11.4177 15.625 11.3543 15.4628L11.1429 14.9234L10.496 14.5508L9.92457 14.6377C9.75238 14.6638 9.5763 14.6375 9.41932 14.5621C9.26234 14.4866 9.13174 14.3656 9.04457 14.2148L8.81257 13.8126C8.72555 13.6619 8.68598 13.4885 8.69902 13.315C8.71207 13.1415 8.77713 12.9759 8.88571 12.84L9.24685 12.3874V11.64L8.88571 11.1874C8.77703 11.0513 8.71192 10.8855 8.69888 10.7118C8.68583 10.5381 8.72545 10.3645 8.81257 10.2137L9.04457 9.8137C9.13151 9.66292 9.26185 9.54182 9.41862 9.46619C9.57538 9.39056 9.75129 9.36391 9.92342 9.3897L10.4949 9.47656L11.1429 9.10056L11.3554 8.56342C11.4189 8.40139 11.5297 8.26226 11.6734 8.16419C11.8172 8.06612 11.9871 8.01368 12.1611 8.0137ZM12.3931 10.6537C12.7177 10.6537 13.0594 10.7486 13.3109 10.9577C13.5966 11.1966 13.7314 11.5703 13.7497 11.9257C13.768 12.2823 13.6731 12.6651 13.4411 12.9383C13.184 13.24 12.7749 13.3726 12.3931 13.3726C12.0126 13.3726 11.6023 13.24 11.3451 12.9383C11.1131 12.6651 11.0183 12.2823 11.0366 11.9257C11.056 11.5714 11.1909 11.1966 11.4766 10.9577C11.7269 10.7486 12.0686 10.6537 12.3931 10.6537Z" fill="#FE6C24"/>
</g>
<defs>
<clipPath id="clip0_67_474">
<rect width="16" height="16" fill="white" transform="translate(5 5)"/>
</clipPath>
</defs>
</svg>
